<svg xmlns="http://www.w3.org/2000/svg" height="9.68in" width="616.963" viewBox="0 0 964 1452"><path d="M495.68 789.59c3.45-3.6 7.71-6.63 10.48-10.87 2.82-4.32 1.21-9.13 6.89-12.82 2.99-1.93 16.23-3.93 17.95-4.77l5-3.46c7.6-5.12 10.66-7.03 20-7.4 2.03-.08 11.1.79 12.59 1.75 2.57 1.67 2.92 5.5 8.41 9.1 2.66 1.74 4.53 1.92 7 3.17l6 3.71c3.09 1.43 5.07.68 8 1.3 8.22 1.71 1.05 2.58 13.28 1.92 5.98-.32 10.53-.4 13.72-6.22l17-2c1.99 2.11 5.81 6.38 8.05 7.73 5.17 3.12 14.86 2.81 7.95 11.27 8.73 5.43 8.67 5.85 19 4 4.41 4.85 5.96 3.19 8.03 5.58 1.16 1.34 1.38 3.54 3.54 6.25 3.65 4.58 15.51 13.75 21.43 14.15l12.87-1.58c3.46-1.41 3.94-5.28 8.15-4.71 2.29.31 14.67 4.78 16.98 6.18 5.82 3.52 5.53 5.33 13 6.13.65 5.18 2.32 5.96 0 11l4.42 7.95c2.27 2.94 11.64 10.1 11.85 13.16.43 6-9.57 13.71-5.75 17.14.89.8 3.34 1.82 4.48 2.25 8.73 3.45 15.04-.22 20 0l20 3.79c6.51.97 6.31 2.51 9.17 3.58L831 878l7 3.35 8 1.53c5.24 1.83 10.34 4.88 16 4.65 12.63-.49 9.04-1.91 22 1.37l6 1.16c14.9 4.84 14.19 14.89 32 14.94l5.02 9 4.98 18h-3c-.02 6.63-.95 14.33-4.7 20l-4.76 6-4.4 6.83-10.2 10.02c-2.88 3.77-1.45 4.4-4.76 10.15l-10.42 16c-4.05 8.1-3.31 23.8-4.32 27l-4.14 9-2.43 11-5.34 9c-2.31 5.4-.66 7.7-2.96 12l-11.03 16c-2.36 3.7-1.95 6.1-4.1 8.8-1.41 1.8-3.66 3.1-5.44 4.6-4.3 3.5-7.72 8.3-13.54 9.3-5.55.7-11.97-1.5-15.46 0-5.08 2.5-8.92 7.5-13.42 10.5-4.02 2.6-5.86.2-10.58 2.7l-19 13.1c1.14 4.5.98 5.4-3 8 2.63 5.8-.07 5.7-1.61 11-1.18 4 .18 6.9-2.4 11-2.54 4-9.33 6.7-14.03 14-2.48 3.9-1.18 4.6-2.27 8l-2.69 6c-6.81-2.7-7.92 1.4-13 5.7l-7.95 6.4-8.78 10.7c-5.15 5.1-8.44 4.5-10.27 13.2l-8.09 2.9L690 1229l-13-1-3 4c2.75 3.9 2.98 4.3 2 9l7 3-4 9c2.04 4.1-3.33 4-6.09 6.2-6.24 4.9-8.3 5.7-15.91 7.9-5.24 1.5-7.75.6-12 4.9h-12c-1.03 6.4-2.77 5.9-6.46 10.4-1.87 2.3-2.24 4-4.68 6.4-5.22 5.2-13.6 5.5-19.86 2.2l4.15 8-1.15 7h3v3c-9.18 3.1-7.12 3.3-12.49 9.6L589 1326c-8.2 0-12.75 3-17 10l6.72 1.6c1.36.5 2.31 1.4 3.39 2.4 1.14 1 2.75 2.6 3.07 4.2.58 2.8-5.04 11-7.32 12.8-2.92 2.4-5.9 2.9-9.65 6.9-3.42 3.6-2.11 5.3-5.01 8.8l-6.91 6.3c-1.68 2-3.87 6.5-5.29 9l4 1-1 6c3.9 2.2 6.8 5.8 10.09 8.8 5.29 4.9 7.05 4.6 11.76 7.8 1.47 1 2.9 2.1 1.98 4.1-.57 1.2-2.75 2.8-3.85 3.6-7.41 5.6-6.68 2.1-12.98 2.1-4.86-.2-10.11 1.1-15 0l-10.55-4.4-4.56-4.3c-3.65-3.4-9.6-7.3-8.89-12.7l-9-7c4.8-2.6 4.4-4 4.45-9 .12-2.9 1.5-5.9 0-8.6-2.1-3.5-5.95-4.4-7.9-6.2-1.23-1.2-6.92-9.8-7.01-11.2-.37-5.5 9.71-8.1 11.4-14 .53-1.9-.51-6.5-.57-9l1.4-18.6c.19-3-.91-4.5 0-7 .81-1.7 2.98-4 4.23-5.4-3.59-5.8 3.22-6.6 3.42-11.3.39-2.7-2.29-3.8 0-11.7 1.37-5.7 4.31-6.9 4.41-10 .11-3.3-2.05-1.7-1.48-9 .53-4.2-1.03-4.9 0-8l5.79-10 3.52-8 8.6-17 1.35-5c1.57-4.6 3.84-5 3.33-12-.38-5.2-3.02-6.9-2.74-11 .24-3.5 2.53-5.3 3.2-8 .62-2.4-.31-4.6-.58-7-.58-5.1 2.12-6.2 4.15-11l5.14-18c2.67-13.2-1.44-13 4.89-27-5.19-4-.41-4.7-1.14-11-.96-8.4.86-6.2.87-12 .01-10.2-2.34-6.2-.79-21 .54-5.2-2.69-8.4-6.11-11.9-12.03-12.4-22.59-11.7-30.83-17.5l-18.35-12.8c-2.54-3.1-2.68-8.2-4.05-11.8-1.39-3.6-2.83-3.6-3.06-8 .04-1.5.43-2.4 0-4-1.14-3.3-10.07-11.12-12.93-15-5.69-7.7-4.64-11.23-6.15-14.91L471.71 968l-13.64-22c-2.38-3.44-5.14-5.99-3.07-10-1.42-1.1-2.3-1.6-3.44-3.11-7.83-10.45 6.08-15.19 7.02-21.89.47-3.37-2.13-5.99-2.84-8.7.75 2.87-.93-14.41-.97-11.3.03-2.91 2.96-6.69 4.66-9l10.44-14c3.13-4.46 2.4-6.26 8.13-8-.12-6.63 2.15-4.63 6.83-9.14 3.15-3.04 5.69-7.25 8.17-10.86-3.14-4.29-1.02-9.92-.96-15 .09-6.45-.92-5.35-1.33-9-.54-4.97-.48-12.52-2.71-17l7.68-9.41z" stroke="#000"/><path d="M190 58.26l5.22-5.39c2.71-3.33 3.69-6.53 7.8-8.7 5.48-3.44 9.51-1.09 14.98 0l13 2.41L249 55c-6.97 10.61-2.63 10.28 1.92 18.2 1.18 2.03.34 2.87 3.71 8.8l6.84 11.28.64 4.72 1.47 6c1.01 6.17-.39 9 6.42 13.26 4.63 2.9 9.95.87 15 .75 9.11-.2 7.29 1.33 11.37 4.04 5.7 3.78 5.54 1.11 9.63 8.95l-3 3.09h7.98c4.73.69 5.66 4.38 8.36 7.63l6.86 8.01c4.62 4.39 7.25 2.78 8.8 12.27l-7-1c.77 1.5.87 2.22 2.29 3.42 3.65 3.05 15.08 4.47 19.71 3.8l8-2.54 11-1.68c.43 1.86.28 2.24 1.47 3.98 2.4 3.48 15.14 13.55 19.49 13.41 3.7-.12 13.75-11.55 17.3-3.33.55 1.27.58 2.6.74 3.94 10.43-4.97 4.58-10.3 12.02-13.26 9.42-3.76 10.85 5.13 17.98 5.26 2.71 6.66 1.27 9.45 6 15 1.26-5.6 7.88-9.89 13-12l-4-7c2.81-1.31 9.86-3.96 12.7-2.19 1.44.89 2.78 3.55 3.71 5.02.98 1.56 2.37 2.99 1.9 4.97-.49 2.03-4.74 6.6-6.31 8.2 3.84 4.51 3.94 9.78-1.06 13.65-4.13 3.19-6.77.51-10.36 1.65-3.5 1.11-11.74 7.18-13.74 10.28L437 218c1.39 3.12.19 4.94-3.04 6.24l-5.87 1.32-13.82 8.09c-1.6 1.36-2.21 2.62-3.27 4.35l-2-3c-10.5 7.77-8.02 6.02-16 16 4.45 6.07-2.11 10.56-6 15 10.27 5.78 10.93 15 15.49 19.2 6.79 6.26 10.96 5.1 15.51 7.42 5.77 2.93 18.18 11.8 24 13.23 1.82.25 5.96.15 8 0 2.22 4.46 3.27 4.77 8 5.15l-2.67 12 9.67 13 16 3-2.58-13-4.42-12c8.94-3.42 23.78-12.42 19.85-24-1.94-5.75-6.11-6.36-7.65-11.09-3.19-10.72-.01-11.36 0-18.91l-1.06-11c-.84-3.39-4.06-6.4 0-9.29 3.29-2.36 8.37-.81 11.86 0l7 1.14c3.46.98 15.38 7.36 18.99 9.36 1.93 1.07 9.08 3.51 9.7 5.11.68 1.77-1.84 7-1.13 11.62.58 3.78 3.41 3.8 6.44 4.88l7 2.75c4.13.64 9.03-3.96 10.4-7.57 1.69-4.46-.67-4.67 3.6-9 2.77 2.75 10.45 9.31 10.98 13 .28 1.92-.34 2.46-.98 4 8.19 4.68 8.38 4.72 17 8.32 2.58 1.08 5.57 1.07 7.7 3.03 2.83 2.58 3.44 7.58 5.85 10.51 2.75 3.35 5.6 2.83 7.82 5.41 1.55 1.8 1.05 3.4 3.07 5.45 6.77 6.83 10.33 6.42 14.6 8.5 5.28 2.58 3.89 4.57 10.96 4.78-.27 7.98-2.6 7.56-2.76 10.42-.16 2.78 3.96 7.03 5.48 9.58l3.86 7.53c7.2 8.67 20.31-.7 17.74 13.47l-1.32 5 1 1 5-2 5 14-11.99.95-7.18-1c-2.91-.13-5 .39-7.83-.97-2.91-1.4-4.53-3.99-8-4.38-10.57-1.17-12.38 11.92-12 19.4-5.79 4.28-5.89 6.86-9.13 8.86l-21.77 9.62c-3.43 2.54-5.73 8.84-10.08 9.7-7.47 1.47-4.41-9.9-3.02-13.18-4.22-.36-12.37 3.41-15.87 5.98l-4.54 3.88c-2.69 1.53-4.92.32-7.54 2.08-2.46 1.65-2.82 3.73-4.31 5.93-2.06 3.06-4.7 4.06-5.07 5.79-.5 2.34 4.68 6.95 6.33 8.34-1.58 4.53-2.4 3-5.74 5.54-2.1 1.59-2.69 3.25-5.37 4.4-2.47 1.07-6.9.91-11.87 3.65-4.2 2.31-5.62 5.55-8.09 9.41-5.06 7.92.29 12.92-7.93 13l-4 13c-2.95 1.21-1.57 3.32-1.26 6 .34 3 2.16 12.11 1.67 13.87-1.9 6.82-11.8 8.17-17.41 10.13 1.71 9.9-4.71 2.78-12 9.11l-8 7.26c-10.52 8.43-14.9 11.11-15.02 25.63-.1 12.37 3.36 11.22 5.05 17 .52 2.35-.12 3.88 0 6 .88 6.52 6.54 9.82 7.58 16 1.11 6.7-3.49 6.02-3.61 18-1.57-.05-3.21.02-4.72-.52-5.5-1.98-12.77-10.92-14.28-16.48l3-1c-6.11-7.77-2.32-7.01-3.42-11.91L437.69 578c-3.91-5.19-12.11-10.92-18.7-11.59-3.78-.62-6.55 1.26-12.99 0-6.89-1.04-6.6-3.55-13-5.41v3c-7.5 1.09-10.06 3.33-15 9-11.82-3.08-23.63-6.57-36-6.43l-7 1.02c-2.1-.1-3.95-.53-6 0-4.28 1.76-6.5 6.34-11.03 9.09-2.25 1.36-12.93 7.15-13.78 8.6-2.22 3.81 2.39 10.77 1.05 15.68-.98 3.59-4.83 5.09-6.09 9.05-.12 1.2-.52 14.09 0 15.57.41 2.8 2.06 4.31 2.13 7.42.16 6.55-3.8 4.11-2.28 16-6.92 4.45-3.05 8.1.89 14 6.68 9.99 13.55 15.83 26.11 16 6.52.08 20.75.78 26-2.69 6.87-4.53 4.99-8.43 7.6-12.22 3.78-5.5 14-10.27 20.4-11.91 1.72-.44 5.3-1.08 7-.78 3.24.58 8.94 5.02 8.55 8.69L388.57 673c-1.55 4.29.89 5.66-1.22 8.78L377 690c4.06 3.05 3.45 8.37 2.46 13-.53 2.51-2.31 5.86.82 7.4 3.89 1.92 10.71-.33 14.72-.56h7l6-.57c2.67-.18 12.74 1.35 14.91 2.69 4.9 3.04 4.98 6.89 6.95 10.21L434 728l-3.98 6v7L429 759c-6.62 2.07-4.4 4.93-2.23 10 1.57 3.64 2.16 5.72 5.34 8.4 5.28 4.47 8.44 3.44 12.89 8.6l-3 7c-2.8-.14-7.36.13-9.71-1.18-4.22-2.35-6.73-8.86-13.29-12.06-3.9-1.9-11.71-2.64-14.06-6.04-2.25-3.25.14-5.42-.7-9.72-1.25-6.35-5.33-8.09-10.24-11l3-1c-2.27-3.17-5.45-7.2-9-8.98l-19.91-3.95c-3.6-1.2-4.43-4.06-8.1-5.48-5.65-2.19-6.07 1.6-13.99-4.59v1l-2 1c-5.7-5.7-19.65-21.38-26-24.18-8.49-3.76-14.83 1.88-21 2.67-6.31.81-17.72-6.68-23-9.93-3.75-2.3-4.83-1.95-8-3.45l-11-6.12c-8-5.37-7.88-9.41-11.27-12.69-2.38-2.32-4.79-2.55-7.28-4.86l-4.58-5.44-12.02-10.8c-1.36-1.21-3.54-2.67-4.07-4.46-1-3.4 2.3-8.82 3.77-11.74 1.75-3.51 2.65-8.13 1.73-12-1.25-5.24-4.31-7.21-6.24-11-1.24-2.45-.94-3.55-3.13-7l-5.74-8c-1.27-2.51-1.04-4.37-2.76-6.99-2.04-3.09-5.19-4.78-8.01-9.05-3.2-4.84-6.08-13.33-7.44-19.05-.64-2.69-.25-5.31-1.4-7.91-2.05-4.62-7.34-7.4-11.05-13-5.32-8.04-.87-12.64-1.9-16.83-.92-3.76-6.33-7.62-9.61-9.17l-1.92 11.28L161 538c6.07 3.3 6.48 4.48 7 11l-4 1c4.17 6.17 1.23 5.17 1.97 11 .55 4.38 4.26 9.71 5.84 14 1.56 4.22.83 6.15 1.77 9 2 6.07 5.22 5.74 1.42 13 9.07 5.91 3.47 8.3 13 14-6.15 4.24-10.01.98-16-2-.56-8.12-4.65-7.83-6.49-14-2.3-7.72 2.39-11.8-3.73-20.87-3.22-4.78-9.55-5.92-11.57-9.47-.97-1.71-.8-6.2-1.21-8.66l6.51-6.58L157 543c-3.44-5.96-5.54-8.39-12-11 .84-2.99 3.26-6.82 3.15-9l-4.83-22c-.05-5.2 4.39-7.19 0-15-4.6-7.76-14.49-13.19-17.6-22l-2.44-12v-6l-1.04-8c.23-3.56 2.39-4.97 2.35-7.28-.04-2.85-3.46-6.06-4.59-8.72-1.94-4.55.38-9.34 3-13-6.1-8.3 3.89-13.07 6.64-19.09 1.35-2.94 1.63-11.1 3.97-14.92l6.23-7.99 8.78-14c2.48-3.64 5.65-6.93 7.4-11l7.06-24.72c.07-1.45-1.18-6.86-1.8-8.14-2.18-4.47-6.54-2.24-7.76-9.14-.48-2.69.1-6.55 1.46-8.91 2.23-3.86 8.96-7.04 3.02-11.09 2.34-7.22 2.98-13.48 1.02-21-.91-3.51-3.34-5-2.77-8 .42-2.25 3.27-5.27 4.75-7-4.47-6.12 1.81-10.54 5-16-6.18-4.17-2.83-8.74-1-14 2.48-7.1.5-9.83 8-14l-1.63-11-1.94-6v-7.83l-11.99-12.63-7.53-6.51-16.91-3.59-10-4.74-14 2.49-13.04-6.61L83 141c-3.14 2.82-3.17 2.05-7 3.03-10.89 2.8-6.33 1.46-17 .97l-2-9-19-2.67h-7.96L18 126c6.94-8.09 10.98.86 18 3.22 2.95 1.04 5.1.16 8 0l20 2 8-.95 19 1.56c5.85-.15 7.41-1.54 14 0-.92-8.71-8.38-8.15-8.59-15.83-.12-4.26 3.81-6.3 5.14-10 .91-2.5.07-5.19 1.01-7.72 2.03-5.5 7.28-8.5 11.16-12.41 2.59-2.61 5.41-6.87 9-8.17H137l5 1.17h20c-2.39-4.94-5.48-6.95-6.35-9.87-1.95-6.57 8.43-15.25 12.39-15.14 3.17.1 6.32 3.16 8.96 4.64 2.84 1.59 5.84 1.92 9 2.5l-1 5c4.93-4.2 2.53-3.86 5-7.74z" stroke="#000" fill="red"/></svg>